<svg width="48" height="48" viewBox="0 0 48 48" fill="none" xmlns="http://www.w3.org/2000/svg">
<path d="M17.5401 31.07C13.7801 32.28 12.6701 36.14 14.6501 36.14C16.1901 36.14 14.9801 33.99 18.1501 32.97C18.3701 32.9 18.5801 32.83 18.8001 32.74L21.0101 31.74V29.66L17.5401 31.07Z" fill="#C4455E"/>
<path d="M38.68 12.05C35.2 13.22 33.11 18.59 31.26 21.3C29.48 23.71 28 23.68 24 24.58L25.64 26.34C28.59 25.58 30.76 25.24 32.64 22.86C34.2 22.57 35.56 21.23 37.72 21.95C37.972 22.0348 38.2473 22.0161 38.4855 21.898C38.7236 21.7799 38.9051 21.5719 38.99 21.32C39.0749 21.068 39.0562 20.7927 38.938 20.5545C38.8199 20.3163 38.612 20.1348 38.36 20.05C37.0617 19.5826 35.636 19.6147 34.36 20.14C35.82 17.57 37.45 14.6 39.36 13.95C39.612 13.8598 39.8178 13.6732 39.9322 13.4313C40.0466 13.1894 40.0602 12.9119 39.97 12.66C39.8798 12.408 39.6933 12.2022 39.4513 12.0878C39.2094 11.9734 38.932 11.9598 38.68 12.05Z" fill="#C4455E"/>
<path d="M35.6201 34C35.7401 34 30.7301 34.36 24.9801 29.45C24.999 35.3382 24.4565 41.2148 23.3601 47L17.2701 47.06C20.9201 26.81 17.9501 25.33 16.7901 16.06C15.2094 17.7511 13.2775 19.0755 11.1301 19.94C9.32009 20.61 8.07009 16.73 9.87009 16.08C12.5329 14.6678 14.7362 12.5235 16.2201 9.9C16.0001 6.56 16.0001 3.45 16.0001 1H22.0001C21.8526 7.399 22.3654 13.7962 23.5301 20.09L23.6201 20.23C23.7001 20.35 28.8101 28.55 35.9301 29.01C33.6401 29.29 33.2301 33.5 35.6201 34Z" fill="#DB5669"/>
<path d="M33.4601 40.11C32.961 39.7695 32.5623 39.3013 32.3055 38.7543C32.0487 38.2074 31.9433 37.6016 32.0001 37C32.0001 35 31.3901 33.74 30.0001 29.82L27.6301 30.42C28.7101 32.52 30.0001 34.63 30.0001 37C30.0001 40 32.0001 42 33.0001 42C33.2249 42.0009 33.4434 41.9261 33.6205 41.7876C33.7975 41.649 33.9227 41.4549 33.9758 41.2365C34.029 41.0181 34.007 40.7882 33.9134 40.5838C33.8199 40.3794 33.6602 40.2125 33.4601 40.11Z" fill="#C4455E"/>
<path d="M29.0002 10C28.9302 10 27.4302 9.89002 25.8002 7.44002C24.9137 6.15932 23.7299 5.11273 22.3502 4.39002L20.4302 3.65002C20.4902 3.82002 21.0702 5.65002 21.1202 5.85002C21.4502 6.39002 22.8902 6.78002 24.1202 8.58002C26.4002 11.9 28.7402 12 29.0002 12C29.2654 12 29.5197 11.8947 29.7073 11.7071C29.8948 11.5196 30.0002 11.2652 30.0002 11C30.0002 10.7348 29.8948 10.4805 29.7073 10.2929C29.5197 10.1054 29.2654 10 29.0002 10Z" fill="#C4455E"/>
<path d="M11.9101 19C10.7401 19.17 9.68011 17.44 10.0901 16C11.2601 15.85 12.3201 17.58 11.9101 19Z" fill="#F26674"/>
<path d="M35.6201 34C35.7401 34 30.7301 34.36 24.9801 29.45C25.0032 34.661 24.5715 39.864 23.6901 45C23.216 45.0013 22.7464 44.9092 22.3079 44.729C21.8694 44.5488 21.4707 44.284 21.1345 43.9497C20.7984 43.6154 20.5314 43.2182 20.3487 42.7807C20.1661 42.3432 20.0714 41.8741 20.0701 41.4C20.0701 40.55 22.0701 29.29 20.2801 22.85C19.8095 21.0872 19.429 19.3015 19.1401 17.5C19.0976 17.2418 19.0002 16.9956 18.8545 16.7782C18.7088 16.5608 18.5181 16.3772 18.2954 16.2398C18.0726 16.1024 17.823 16.0143 17.5633 15.9816C17.3037 15.9488 17.04 15.9722 16.7901 16.05C15.7759 17.1336 14.6146 18.0694 13.3401 18.83C14.8701 17.83 13.5301 14.45 11.8701 15.07C14.5329 13.6578 16.7362 11.5135 18.2201 8.89C18.0501 6 18.0001 3.27 18.0001 1H22.0001C21.8527 7.399 22.3654 13.7962 23.5301 20.09L23.6201 20.23C23.7001 20.35 28.8101 28.55 35.9301 29.01C33.6401 29.29 33.2401 33.5 35.6201 34Z" fill="#F26674"/>
<path d="M38 31.81C37.9564 32.3663 37.7196 32.8898 37.3306 33.2898C36.9415 33.6897 36.4248 33.941 35.87 34C34.73 34 33.8 32.76 34.04 31.19C34.0843 30.6616 34.2996 30.162 34.6533 29.7668C35.0069 29.3717 35.4797 29.1025 36 29C37.07 28.85 38.23 30.07 38 31.81Z" fill="#DB5669"/>
<path d="M37.6102 32.83C35.6102 33.73 34.3002 31.03 35.3802 29.19C37.0602 28.25 38.8202 30.7 37.6102 32.83Z" fill="#F26674"/>
</svg>
