<svg width="48" height="48" viewBox="0 0 48 48" fill="none" xmlns="http://www.w3.org/2000/svg">
<path d="M17.2421 35.3835L15.9291 37.6059C15.7973 37.829 15.6201 38.022 15.409 38.1723C15.1979 38.3226 14.9576 38.4268 14.7036 38.4784L13.4981 38.723C13.1029 38.8032 12.6924 38.7521 12.329 38.5776C11.9655 38.4031 11.669 38.1146 11.4845 37.7561L10.4084 35.6656L7.9555 36.5973L9.37517 38.8324C9.63517 39.2418 9.76363 39.721 9.74326 40.2056C9.72289 40.6902 9.55468 41.1569 9.26124 41.543L7.46533 43.9072L9.77103 45.0353L11.9718 41.9043C12.1969 41.5839 12.5362 41.362 12.92 41.2842L15.1983 40.8229C15.4943 40.7629 15.8015 40.7919 16.0811 40.9062C16.3606 41.0205 16.6002 41.2149 16.7694 41.4651L18.4551 43.9563L21.0546 43.0245L18.8817 40.0187C18.6519 39.7008 18.5184 39.3235 18.4972 38.9318C18.4759 38.5401 18.5679 38.1506 18.762 37.8097L19.6232 36.2975C19.7503 36.0736 19.8895 35.8568 20.0402 35.6481C19.2828 35.3776 18.3322 35.3082 17.2421 35.3835Z" fill="#46A784"/>
<path d="M21.888 29.8769L18.0621 30.7599C18.0621 30.7599 18.4208 31.5049 18.2277 32.8591C18.1118 33.6313 17.8455 34.3732 17.4437 35.0428L17.2424 35.3835L20.0408 35.6489C20.4656 35.0561 20.9866 34.5385 21.5822 34.1177C22.117 33.7427 22.7331 33.4282 23.3112 33.409L21.888 29.8769Z" fill="#00f044"/>
<path d="M32.3335 29.3713C32.3335 29.3713 34.0357 31.9618 31.928 34.0991C29.8204 36.2363 26.3297 35.4826 25.1113 33.6049L32.3335 29.3713Z" fill="#00f044"/>
<path d="M12.7862 20.7689C12.7862 20.7689 10.4202 18.4776 12.2008 15.6681C13.9815 12.8585 18.0173 14.4809 18.0173 14.4809L12.7862 20.7689Z" fill="#00f044"/>
<path d="M40.041 37.7301L36.9765 37.3995C36.3748 37.3345 35.7981 37.1238 35.2962 36.7857C34.7944 36.4475 34.3826 35.992 34.0965 35.4587L33.4876 34.3235C33.0076 35.0787 32.5791 36.1354 32.1858 37.4037L32.2341 37.4931C32.6602 38.2804 32.7881 39.1949 32.5945 40.0689L31.6931 44.1388L34.1812 44.77L34.8488 41.9277C34.9911 41.3223 35.3466 40.7884 35.8503 40.4236C36.354 40.0588 36.9722 39.8876 37.5918 39.9414L39.7735 40.1307L40.041 37.7301Z" fill="#46A784"/>
<path d="M35.729 9.51531L37.537 8.02477C37.8264 7.78622 38.0648 7.49194 38.2382 7.15942C38.4116 6.82689 38.5163 6.46291 38.5462 6.0891L38.7962 2.96472H41.0354V5.29639C41.0354 5.75443 41.2039 6.19647 41.5088 6.53829C41.8137 6.8801 42.2337 7.0978 42.6887 7.1499L45.5471 7.47729V10.1987L41.419 9.373C40.9901 9.28721 40.5471 9.30316 40.1255 9.41957C39.7039 9.53598 39.3155 9.74961 38.9915 10.0433L36.5293 12.2739C36.4096 12.3823 36.2957 12.4956 36.1875 12.6137C35.9012 11.6051 35.7471 10.5636 35.729 9.51531Z" fill="#46A784"/>
<path d="M3.06121 15.0944L6.04145 14.3078C6.62655 14.1533 7.24051 14.1438 7.8301 14.2803C8.41968 14.4167 8.9671 14.6948 9.42488 15.0906L10.7841 16.2656C11.0102 15.1697 11.0541 14.0441 10.9142 12.9339L10.437 12.5245C9.7576 11.9416 9.31115 11.1333 9.17952 10.2479L8.56639 6.12494L6.01702 6.42494L6.40935 9.31764C6.49308 9.93393 6.35205 10.5598 6.01209 11.0806C5.67213 11.6014 5.15598 11.9824 4.5581 12.1537L2.45288 12.757L3.06121 15.0944Z" fill="#46A784"/>
<path d="M10.7842 16.2656L13.9889 19.0362L15.706 17.0458L10.9142 12.9344L10.7842 16.2656Z" fill="#00f044"/>
<path d="M34.9304 16.9638C34.7847 16.1911 34.8227 15.3949 35.0414 14.6396C35.2601 13.8842 35.6534 13.1909 36.1894 12.6156L35.729 9.51532L31.3896 13.0927L31.9752 16.262L34.9723 17.1576C34.957 17.0924 34.9431 17.0278 34.9304 16.9638Z" fill="#00f044"/>
<path d="M32.1859 37.4037L33.4877 34.3236L31.2448 30.1423L28.9297 31.3872L32.1859 37.4037Z" fill="#00f044"/>
<path d="M43.0975 22.7125V25.3651H39.4042C38.4706 25.3629 37.5403 25.476 36.6343 25.7018C35.8819 25.8911 35.0366 26.159 34.4854 26.5019V21.4378C34.4854 21.4378 36.2422 23.2981 43.0975 22.7125Z" fill="#46A784"/>
<path d="M23.6046 2.96472H26.2573V6.65776C26.2551 7.59138 26.3682 8.52171 26.5939 9.42764C26.7833 10.1801 27.0512 11.0255 27.3941 11.5768H22.3301C22.3301 11.5768 24.1897 9.81983 23.6046 2.96472Z" fill="#46A784"/>
<path d="M12.6228 24.6561C12.6228 24.6561 12.3837 25.636 11.1952 26.3987C10.5819 26.7868 9.85218 26.9482 9.13245 26.8549L4.31014 26.2562L4.07593 28.3636L11.2932 29.1734C11.9174 29.2433 12.5359 29.3569 13.1443 29.5135C14.0951 29.7583 15.4247 30.1556 16.018 30.5882L15.7449 25.983L12.6228 24.6561Z" fill="#46A784"/>
<path d="M36.5128 19.3493C36.5126 18.3599 36.1892 17.3976 35.5918 16.609C34.9943 15.8203 34.1556 15.2483 33.2032 14.9802L33.0071 13.9726C32.752 13.1674 32.2775 12.4493 31.6369 11.8988C30.9963 11.3484 30.2149 10.9874 29.3804 10.8564L27.5487 10.9448C27.1065 10.4743 26.5608 10.1133 25.9549 9.89019C25.3489 9.66711 24.6994 9.58814 24.0577 9.65955C23.4159 9.73095 22.7996 9.95077 22.2576 10.3016C21.7155 10.6524 21.2626 11.1246 20.9346 11.6808C20.2806 11.4445 19.5753 11.3878 18.8919 11.5164C18.2086 11.645 17.5722 11.9544 17.0489 12.4122C16.5256 12.8701 16.1345 13.4598 15.9162 14.12C15.698 14.7802 15.6606 15.4868 15.8079 16.1664C15.7524 16.1635 15.6964 16.1621 15.6402 16.162C15.0974 16.162 14.5636 16.3006 14.0893 16.5646C13.6151 16.8287 13.2162 17.2095 12.9303 17.6709C12.6445 18.1323 12.4812 18.6591 12.456 19.2013C12.4307 19.7435 12.5444 20.2832 12.7861 20.7691C12.2136 21.1415 11.7759 21.688 11.5374 22.328C11.299 22.968 11.2725 23.6677 11.4618 24.3239C11.6511 24.9801 12.0462 25.5581 12.5889 25.9728C13.1316 26.3874 13.7931 26.6168 14.476 26.627L14.2346 27.827C14.2331 27.8693 14.2324 27.9131 14.2324 27.9563C14.2323 28.6101 14.4033 29.2526 14.7286 29.8198C15.0538 30.387 15.5219 30.8591 16.0862 31.1893C16.6506 31.5195 17.2915 31.6961 17.9453 31.7017C18.5991 31.7073 19.243 31.5416 19.8129 31.2211L20.2239 32.1576C20.5546 32.7267 21.0054 33.2169 21.5449 33.5941C22.0844 33.9712 22.6996 34.2263 23.3477 34.3415C23.9958 34.4566 24.6612 34.4292 25.2976 34.261C25.934 34.0928 26.5261 33.7879 27.0327 33.3676C28.0517 33.6802 29.1524 33.5839 30.1017 33.099C31.051 32.6141 31.7742 31.7788 32.1183 30.7699C32.1183 30.7699 32.3341 29.3973 32.3336 29.3709C33.0129 29.2353 33.6467 28.9298 34.1759 28.4828C34.7051 28.0358 35.1123 27.462 35.3595 26.815C35.6068 26.1679 35.6859 25.4687 35.5897 24.7828C35.4934 24.0968 35.2248 23.4464 34.809 22.8924C35.3409 22.4678 35.7703 21.9288 36.0653 21.3154C36.3603 20.702 36.5133 20.03 36.5128 19.3493Z" fill="#83CFB4"/>
<path d="M31.3561 19.9482C30.8892 18.7991 29.2845 18.712 28.7393 19.8261C28.5963 20.1131 28.5187 20.4282 28.512 20.7487C28.5151 21.1975 28.6811 21.6298 28.979 21.9654C29.7696 22.9254 31.3225 22.5322 31.5169 21.3038C31.5897 20.8458 31.5341 20.3765 31.3561 19.9482Z" fill="#00f044"/>
<path d="M20.9787 26.294C21.0605 26.1136 21.0884 25.9133 21.059 25.7174C21.0295 25.5214 20.944 25.3382 20.8127 25.1898C20.6814 25.0414 20.51 24.9342 20.3191 24.8811C20.1283 24.828 19.9261 24.8313 19.737 24.8906C19.5185 24.9603 19.3182 25.0776 19.1503 25.2339C18.9218 25.4592 18.7827 25.7598 18.759 26.0798C18.7343 26.2767 18.7671 26.4765 18.8535 26.6551C18.9399 26.8337 19.0762 26.9835 19.2459 27.0863C19.4156 27.1891 19.6114 27.2406 19.8097 27.2345C20.008 27.2285 20.2004 27.1651 20.3634 27.0521C20.6347 26.8612 20.8476 26.5987 20.9787 26.294Z" fill="#00f044"/>
<path d="M21.1817 17.708C21.5353 17.708 21.822 17.4213 21.822 17.0677C21.822 16.7141 21.5353 16.4275 21.1817 16.4275C20.8281 16.4275 20.5415 16.7141 20.5415 17.0677C20.5415 17.4213 20.8281 17.708 21.1817 17.708Z" fill="#00f044"/>
<path d="M24.8614 27.3684C25.215 27.3684 25.5017 27.0817 25.5017 26.7281C25.5017 26.3745 25.215 26.0879 24.8614 26.0879C24.5078 26.0879 24.2212 26.3745 24.2212 26.7281C24.2212 27.0817 24.5078 27.3684 24.8614 27.3684Z" fill="#00f044"/>
<path d="M15.5736 18.8937C15.4664 18.8936 15.3621 18.8588 15.2765 18.7943C15.1909 18.7299 15.1286 18.6393 15.0989 18.5364C14.3724 16.0158 16.3002 14.4662 17.4211 13.9989C17.5418 13.9498 17.6769 13.9503 17.7972 14.0003C17.9175 14.0503 18.0131 14.1458 18.0634 14.266C18.1136 14.3862 18.1144 14.5213 18.0655 14.642C18.0166 14.7628 17.922 14.8593 17.8023 14.9107C17.698 14.955 15.3871 15.9677 16.0486 18.2626C16.0666 18.325 16.0721 18.3903 16.0649 18.4548C16.0576 18.5193 16.0377 18.5817 16.0063 18.6385C15.975 18.6953 15.9327 18.7454 15.8819 18.7858C15.8312 18.8263 15.773 18.8564 15.7106 18.8743C15.6661 18.8871 15.6199 18.8936 15.5736 18.8937Z" fill="#00f044"/>
<path d="M24.8011 18.8359C24.7129 18.818 24.6215 18.8244 24.5367 18.8546C24.4519 18.8848 24.377 18.9376 24.32 19.0073C23.7696 19.7021 23.3806 20.5105 23.1811 21.3741C22.3871 21.2288 21.5718 21.2473 20.7852 21.4285C19.9986 21.6098 19.2574 21.9499 18.607 22.428C17.9492 22.9177 17.4083 23.5473 17.0233 24.2714C15.907 26.303 14.4763 26.6263 14.4763 26.6263C14.3308 27.0104 14.2498 27.4158 14.2363 27.8263C14.9836 27.6948 17.0079 27.1579 18.0705 25.1122C18.4602 24.3297 19.059 23.6704 19.8005 23.2073C20.5629 22.7495 21.6295 22.626 23.0271 22.7556C23.0328 23.4733 23.1526 24.1856 23.382 24.8657C23.4175 24.9718 23.4878 25.0628 23.5815 25.124C23.6752 25.1851 23.7868 25.2128 23.8982 25.2026L23.9376 25.199C24.0095 25.1922 24.0792 25.1697 24.1416 25.1332C24.2041 25.0967 24.2578 25.047 24.2991 24.9877C24.3404 24.9283 24.3683 24.8606 24.3808 24.7894C24.3934 24.7182 24.3902 24.6451 24.3717 24.5752C23.8386 22.4777 24.3062 20.9276 25.1448 19.5506C25.1818 19.4825 25.2021 19.4067 25.204 19.3293C25.206 19.2518 25.1895 19.1751 25.1559 19.1053C25.1224 19.0355 25.0727 18.9746 25.011 18.9278C24.9493 18.881 24.8774 18.8495 24.8011 18.8359Z" fill="#00f044"/>
<path d="M25.8279 12.5044C25.8279 12.5044 25.4932 14.7684 23.8052 14.9308C23.6717 14.9414 23.547 15.0015 23.4556 15.0992C23.3642 15.197 23.3126 15.3254 23.311 15.4593V15.5218C23.3113 15.598 23.328 15.6733 23.3599 15.7425C23.3918 15.8117 23.4382 15.8733 23.4959 15.923C23.5537 15.9727 23.6214 16.0095 23.6946 16.0307C23.7678 16.052 23.8447 16.0573 23.9201 16.0463C25.7388 15.7906 26.4845 14.3613 26.7676 13.5315C26.9477 12.9833 27.2378 12.4776 27.6202 12.0455C28.0026 11.6134 28.4693 11.2639 28.9916 11.0186C29.1296 10.9557 29.2606 10.9021 29.3806 10.8565C28.7705 10.7613 28.1473 10.7911 27.549 10.944C27.549 10.944 26.1477 11.1953 25.8279 12.5044Z" fill="#00f044"/>
<path d="M30.3746 14.3249C30.1911 14.0974 29.9853 13.8889 29.7603 13.7025C29.6605 13.62 29.5345 13.5759 29.405 13.5783C29.2755 13.5806 29.1512 13.6292 29.0544 13.7153L28.9785 13.7831C28.921 13.8341 28.875 13.8968 28.8437 13.9671C28.8124 14.0373 28.7964 14.1134 28.7969 14.1903C28.7974 14.2672 28.8142 14.3431 28.8464 14.4129C28.8786 14.4828 28.9253 14.5449 28.9834 14.5953C29.5784 15.0986 30.0011 15.7754 30.1923 16.5309C30.2223 16.6676 30.3039 16.7874 30.4202 16.8652C30.5365 16.9431 30.6784 16.9729 30.8162 16.9485C30.954 16.924 31.077 16.8473 31.1594 16.7342C31.2418 16.6211 31.2774 16.4806 31.2585 16.3419C31.2087 15.9963 31.1151 15.6584 30.9799 15.3364C31.6675 14.9937 32.4434 14.8694 33.2036 14.9803C33.1765 14.6381 33.1106 14.3002 33.007 13.973C32.4952 13.9091 31.3484 13.8415 30.3746 14.3249Z" fill="#00f044"/>
<path d="M28.8704 27.2938C28.8175 27.1179 28.6994 26.9688 28.5402 26.8771C28.381 26.7854 28.1928 26.7581 28.014 26.8007C27.8348 26.8433 27.6789 26.9534 27.5788 27.1081C27.4788 27.2628 27.4422 27.4501 27.4769 27.6311C28.0592 30.5522 31.2545 30.7652 32.1169 30.77C32.2616 30.345 32.3354 29.8991 32.3353 29.4501C32.3353 29.4237 32.3339 29.3976 32.3333 29.3712C29.9575 29.6166 29.1447 28.1825 28.8704 27.2938Z" fill="#00f044"/>
<path d="M23.0541 30.3567C22.313 30.1122 21.6657 29.6446 21.2009 29.0177C21.1506 28.9533 21.0873 28.9003 21.015 28.8622C20.9427 28.8241 20.8631 28.8019 20.7815 28.7969C20.7 28.7919 20.6183 28.8042 20.5419 28.8332C20.4655 28.8621 20.3961 28.907 20.3383 28.9648L20.3242 28.9789C20.2285 29.0741 20.1691 29.1997 20.156 29.3341C20.1429 29.4684 20.177 29.6031 20.2525 29.715C20.4129 29.9549 20.595 30.1796 20.7964 30.3863C20.4992 30.6985 20.1695 30.9781 19.813 31.2204C19.9145 31.5469 20.0529 31.8608 20.2255 32.1559C20.7388 31.8554 21.198 31.4709 21.584 31.0185C21.9522 31.246 22.3598 31.4025 22.7856 31.4799C22.9308 31.5055 23.0803 31.4747 23.2036 31.3938C23.3269 31.3129 23.4147 31.188 23.449 31.0446C23.4834 30.9012 23.4617 30.7501 23.3884 30.6221C23.3151 30.4942 23.1958 30.399 23.0547 30.3561L23.0541 30.3567Z" fill="#00f044"/>
</svg>
