<svg width="48" height="48" viewBox="0 0 48 48" fill="none" xmlns="http://www.w3.org/2000/svg">
<g clip-path="url(#clip0_5_281)">
<path d="M13.3045 39.7286C13.3987 39.0039 13.7926 38.4987 14.2912 37.8591C14.8615 37.1276 15.5078 36.2986 15.7925 34.9838C16.1231 33.4564 15.8434 31.8077 14.9611 30.0831C14.7797 29.7289 14.3458 29.5886 13.9913 29.7699C13.6369 29.9512 13.4967 30.3854 13.6779 30.7397C14.4046 32.1601 14.6422 33.4854 14.3839 34.6789C14.1688 35.672 13.6762 36.304 13.1545 36.973C12.8215 37.4002 12.4823 37.8368 12.2317 38.3562C11.4845 38.2822 10.4486 38.3369 9.44397 38.915C7.66127 39.9409 6.74864 42.1751 7.17306 44.4747C7.23705 44.8219 7.54001 45.0647 7.88083 45.0647C7.92426 45.0647 7.96827 45.0608 8.01247 45.0526C8.40383 44.9805 8.66259 44.6046 8.59033 44.2132C8.27661 42.5132 8.90857 40.886 10.1629 40.1642C10.7457 39.8287 11.358 39.7551 11.8532 39.7739C11.7354 41.4847 12.7564 43.3299 14.893 45.2628C15.031 45.3875 15.2039 45.449 15.3762 45.449C15.5727 45.449 15.7687 45.369 15.9108 45.2117C16.1778 44.9166 16.155 44.4609 15.8599 44.1939C13.9981 42.5097 13.1383 41.0074 13.3045 39.7286Z" fill="#291af9"/>
<path d="M4.71771 5.80408C4.96235 5.90786 5.19459 6.03508 5.41328 6.18305C5.43394 6.19958 5.45566 6.21476 5.47805 6.22898C6.95547 7.26998 7.78758 9.27261 7.54977 11.4024C7.50566 11.798 7.79056 12.1543 8.18605 12.1985C8.21324 12.2016 8.24015 12.2031 8.26696 12.2031C8.62911 12.2031 8.9411 11.9307 8.98222 11.5624C9.26664 9.01404 8.28848 6.59315 6.52914 5.21661C6.43881 4.53853 6.44131 3.60534 6.82431 2.61382C7.02398 2.09688 7.30772 1.61471 7.66757 1.18069C7.92172 0.874368 7.87934 0.419975 7.57302 0.165922C7.2667 -0.0881304 6.8123 -0.0458524 6.55825 0.260567C6.09857 0.814794 5.73575 1.43186 5.47978 2.09438C5.16336 2.91332 5.04988 3.69796 5.03989 4.38277C3.08203 3.66126 1.22151 4.26708 0.492984 4.57187C0.125837 4.72551 -0.0473105 5.14762 0.106332 5.51477C0.259974 5.88191 0.682178 6.05497 1.04923 5.90142C1.63939 5.65467 3.17783 5.15137 4.71771 5.80408Z" fill="#291af9"/>
<path d="M7.61431 23.6711C7.98492 23.2341 9.09558 21.7516 9.07415 19.7269C9.66288 20.0618 10.3891 20.3237 11.2545 20.3694C11.3429 20.374 11.4298 20.3763 11.5156 20.3763C13.1891 20.3763 14.3833 19.5237 14.8331 19.1426C15.1368 18.8853 15.1745 18.4306 14.9172 18.1269C14.6599 17.8233 14.2052 17.7856 13.9015 18.0428C13.5599 18.3323 12.6259 18.9995 11.3306 18.93C9.71707 18.8449 8.74352 17.663 8.49072 17.3149C7.77305 15.8625 6.44436 14.7 4.79004 14.1603C4.41165 14.0366 4.00482 14.2435 3.88145 14.6219C3.75798 15.0003 3.96466 15.407 4.34305 15.5305C5.58593 15.9359 6.58849 16.7879 7.14752 17.8509C7.16732 17.9126 7.19509 17.973 7.23275 18.0298C7.23688 18.036 7.24207 18.0437 7.24678 18.0507C7.42377 18.4337 7.54436 18.8409 7.59932 19.2625C7.82983 21.0305 6.82794 22.3702 6.51527 22.7388C6.25786 23.0423 6.29514 23.4971 6.59868 23.7545C6.73416 23.8694 6.89981 23.9256 7.0645 23.9256C7.26869 23.9255 7.47182 23.8392 7.61431 23.6711Z" fill="#291af9"/>
<path d="M46.8232 10.3398C46.4312 10.2719 46.0583 10.5352 45.9904 10.9273C45.7861 12.1099 45.3875 12.8782 44.8056 13.2109C44.4039 13.4404 43.9659 13.4328 43.4584 13.4246C42.7963 13.4135 42.0462 13.4009 41.2965 13.9148C40.4994 14.4614 40.0082 15.4058 39.8365 16.7221C39.785 17.1167 40.0631 17.4784 40.4578 17.5299C40.4895 17.534 40.5208 17.536 40.5519 17.536C40.9084 17.536 41.2183 17.2715 41.2656 16.9085C41.3821 16.0158 41.6667 15.4086 42.1115 15.1036C42.464 14.8621 42.8434 14.856 43.4344 14.8657C44.0315 14.8757 44.7758 14.8882 45.5209 14.4622C46.4939 13.906 47.1297 12.7993 47.4108 11.1728C47.4784 10.7805 47.2154 10.4076 46.8232 10.3398Z" fill="#291af9"/>
<path d="M36.211 26.6661C36.4087 26.9195 36.6269 27.1699 36.8707 27.4138C39.1079 29.6506 41.8903 29.8349 42.7363 29.8349H42.7647C43.1628 29.8329 43.4837 29.5087 43.4818 29.1107C43.4798 28.7139 43.1576 28.3936 42.7612 28.3936C42.7525 28.3937 42.7434 28.3936 42.7341 28.3936C42.035 28.3936 39.7369 28.2413 37.8898 26.3946C35.9873 24.4925 35.8787 22.1215 35.8908 21.4401C35.8979 21.0421 35.581 20.7138 35.1831 20.7068C34.7884 20.7017 34.4567 21.0167 34.4497 21.4146C34.4392 22.0131 34.5062 23.6884 35.4234 25.4428C34.8077 25.949 33.9407 26.9071 33.6907 28.4202C33.3229 30.6453 34.6615 32.2012 34.9336 32.4905C35.0756 32.6413 35.267 32.7175 35.4587 32.7175C35.6358 32.7175 35.8132 32.6526 35.9523 32.5218C36.2423 32.2492 36.2563 31.7931 35.9837 31.5031C35.8668 31.3789 34.8501 30.2439 35.1127 28.6552C35.2725 27.6869 35.7997 27.0385 36.211 26.6661Z" fill="#291af9"/>
<path d="M5.16219 26.3676C3.87165 25.6366 2.23203 25.7807 1.08226 26.7262C0.774882 26.979 0.730587 27.4331 0.98339 27.7406C1.23629 28.048 1.69039 28.0922 1.99777 27.8395C2.69037 27.2699 3.67669 27.1826 4.45173 27.6216C5.21917 28.0564 5.64368 28.9065 5.53328 29.7876C5.4837 30.1825 5.76369 30.5427 6.15861 30.5923C6.18907 30.5961 6.21933 30.5979 6.24922 30.5979C6.60723 30.5979 6.91759 30.3314 6.96333 29.9668C7.14666 28.5043 6.43966 27.0915 5.16219 26.3676Z" fill="#291af9"/>
<path d="M44.2938 33.2012C43.9242 33.3489 43.7443 33.7681 43.8919 34.1378C44.1679 34.8286 44.5477 36.1884 43.9912 37.5347C43.1718 39.5172 40.6685 40.6671 38.0391 40.2684C37.6456 40.2084 37.2783 40.4794 37.2187 40.873C37.159 41.2665 37.4297 41.6338 37.8233 41.6934C38.2534 41.7586 38.6808 41.791 39.1024 41.791C39.7846 41.791 40.4513 41.7057 41.0895 41.5381C41.0687 41.6653 41.081 41.7995 41.1336 41.9276C41.2514 42.2141 41.5998 43.2361 41.1347 44.3558C40.7158 45.3641 39.8994 45.8414 39.5677 45.9999C39.2086 46.1714 39.0566 46.6016 39.2281 46.9607C39.3518 47.2196 39.61 47.3709 39.8788 47.3709C39.983 47.3709 40.0889 47.3482 40.1891 47.3003C40.6704 47.0704 41.8556 46.3771 42.4657 44.9087C43.1243 43.3231 42.6857 41.9124 42.4666 41.3795C42.4233 41.2741 42.3574 41.1852 42.2774 41.1144C42.3197 41.095 42.3621 41.0759 42.4041 41.0556C43.7662 40.3991 44.8029 39.3442 45.3233 38.0853C46.0743 36.2679 45.5874 34.497 45.2304 33.6032C45.0828 33.2335 44.6632 33.0538 44.2938 33.2012Z" fill="#291af9"/>
<path d="M26.361 47.774C26.2025 47.774 26.0747 47.6463 26.0736 47.4879C26.0264 40.4336 24.2202 32.9983 20.8768 26.6351C20.7023 26.303 20.3778 25.93 20.2159 25.5975C20.1852 25.5345 20.0485 25.5341 20.0485 25.5341C19.9703 25.5241 19.8865 25.5616 19.8483 25.6455C19.2739 26.9041 18.447 28.1524 17.2634 29.2525C15.0979 31.2652 12.4528 31.5895 10.119 31.8755C7.84678 32.1541 6.41086 32.3815 5.55646 33.5004C4.78786 34.5068 4.6519 36.1413 5.15232 38.3585C5.24927 38.7883 5.13906 39.2164 4.8875 39.5386C4.8875 39.5386 4.39939 39.8027 4.06808 39.8774C3.96344 39.901 3.8588 39.9124 3.75589 39.9124C3.11 39.9124 2.89515 39.5414 2.74699 38.8851C2.05401 35.814 2.19939 33.6364 3.49934 31.9342C4.78412 30.2518 6.42614 29.606 8.31135 29.3097C8.71905 29.2456 9.52416 29.1028 9.52416 29.1028C9.60785 29.0924 9.69154 29.0822 9.77504 29.0719C10.5618 28.9754 11.3321 28.8811 12.0666 28.727C12.0666 28.727 13.3434 28.4912 13.9124 28.2287C14.4356 27.9874 15.1062 27.7373 15.553 27.322C16.0816 26.8307 16.6339 26.3419 16.9923 25.7846C18.2752 23.7897 18.7336 20.9904 18.1698 18.6865C17.8396 17.337 17.5756 15.9917 17.3685 14.4832C17.2107 13.3354 16.8623 11.9851 16.8854 10.5406C16.8872 10.4347 16.6902 10.4193 16.6005 10.4067C16.5488 10.3994 16.4937 10.4132 16.4484 10.4541C16.1746 10.7018 15.893 10.9295 15.6064 11.13C13.5853 12.5435 11.3589 12.7222 9.61323 12.9808C8.18779 13.1919 6.95673 13.3742 5.83472 14.1978C4.3302 15.3022 3.37972 17.3544 3.0094 20.2973C2.91956 21.0113 2.31104 21.5335 1.60932 21.5335C1.55052 21.5335 1.49114 21.5298 1.43127 21.5223C0.657009 21.425 0.108355 20.7186 0.205787 19.9448C0.676707 16.2021 2.00789 13.5025 4.16215 11.9212C5.84923 10.6827 7.62904 10.4191 9.19929 10.1867C10.1472 10.0463 11.1464 10.0109 12.0755 9.77698C12.0755 9.77698 12.9778 9.61373 13.3451 9.41224C13.5375 9.30674 13.768 9.24582 13.9462 9.10255C14.4495 8.69774 15.0338 8.31041 15.4426 7.86361C16.6666 6.52628 17.3983 4.63722 17.5892 2.83445C17.7003 1.78441 17.7773 1.06463 17.8263 0.651074C17.8435 0.505983 17.9664 0.396829 18.1126 0.396829L19.5069 0.2453H22.9011C23.0765 0.2453 23.2114 0.399807 23.1865 0.573436C22.8355 3.02825 22.164 10.7343 22.5858 13.8044C22.5945 13.868 22.6034 13.9313 22.6123 13.9943C23.1176 17.5492 25.9136 20.3816 29.4769 20.8242C29.6727 20.8485 29.871 20.8657 30.0715 20.8747C31.8478 20.9542 33.2531 19.941 34.7421 18.9281C36.4467 17.7685 38.3785 16.4544 40.9861 16.6412C43.3316 16.8095 45.5648 18.152 47.6237 20.6316C48.1383 21.2513 48.0333 22.1807 47.3784 22.6678C46.7696 23.1207 45.9079 22.9845 45.4216 22.4021C43.8826 20.5591 42.3224 19.5689 40.7841 19.4586C39.1554 19.3416 37.7761 20.1343 36.332 21.2632C32.9964 23.8705 29.58 24.6812 25.4657 22.6839C25.3023 22.6046 25.1314 22.7772 25.2098 22.9409C25.3897 23.3164 25.5669 23.6653 25.7381 23.9912C27.0305 26.451 28.1163 29.0203 28.9874 31.6556C29.805 34.129 31.2815 36.3405 33.266 38.0281C33.7203 38.4145 34.1261 38.7115 34.4153 38.8487C35.9221 39.5635 37.716 39.7024 39.2696 39.746C41.0863 39.7969 43.1453 39.8546 44.9771 41.3385C46.376 42.4717 47.3034 44.1418 47.7338 46.3028C47.8862 47.0678 47.3893 47.8114 46.624 47.9637C46.5309 47.9822 46.4381 47.9912 46.3467 47.9912C45.6865 47.9912 45.0963 47.5263 44.9626 46.8544C44.6643 45.3573 44.0707 44.2399 43.1981 43.5331C42.1096 42.6514 40.8213 42.6153 39.1905 42.5695C37.4496 42.5207 35.0998 42.4653 33.0382 41.3152C32.5833 41.0575 31.9966 40.734 31.3615 40.3028C31.224 40.2094 31.0408 40.3232 31.064 40.4879C31.3859 42.7812 31.5565 45.4329 31.5699 47.7113C31.5708 47.8709 31.4411 48.0004 31.2815 48.0004H27.8012L26.361 47.774Z" fill="#53BBCA"/>
<path d="M9.55068 29.0998C7.90952 29.4217 6.36445 30.0155 5.23255 31.4981C3.9325 33.2008 3.62502 35.6202 4.31781 38.6921C4.39852 39.0495 4.60904 39.3455 4.8877 39.5386C4.6936 39.7865 4.41677 39.972 4.08528 40.0469C3.98054 40.0709 3.87581 40.0815 3.773 40.0815C3.12729 40.0815 2.54405 39.6366 2.39608 38.9804C1.70329 35.9085 2.01077 33.489 3.31082 31.7864C4.87895 29.732 7.23883 29.3852 9.55068 29.0998Z" fill="#291af9"/>
<path d="M9.85804 10.1025C8.63102 10.334 7.33193 10.7165 6.08377 11.6331C3.92951 13.2138 2.59871 15.9138 2.12788 19.6564C2.05966 20.1944 2.30468 20.6999 2.72074 20.99C2.46034 21.3244 2.05294 21.5329 1.60902 21.5329C1.55041 21.5329 1.49083 21.53 1.43126 21.5224C0.656801 21.4243 0.108147 20.7181 0.206155 19.9446C0.676979 16.202 2.00778 13.502 4.16204 11.9214C5.84931 10.6828 7.62884 10.4186 9.19889 10.1861C9.41604 10.1544 9.63704 10.1274 9.85804 10.1025Z" fill="#291af9"/>
<path d="M19.507 0.244995C19.457 0.671619 19.3619 1.5191 19.2542 2.54146C19.063 4.34404 18.3107 6.04573 17.0865 7.38422C16.6772 7.83006 16.2189 8.27014 15.7154 8.67466C14.6652 9.52022 13.342 9.6461 12.042 9.78542C12.6694 9.63072 13.2661 9.38762 13.7936 8.96292C14.2971 8.5584 14.7564 8.11832 15.1648 7.67152C16.3889 6.33399 17.1413 4.63326 17.3325 2.82972C17.444 1.78046 17.541 0.912796 17.59 0.499624C17.6073 0.354534 17.7303 0.244995 17.8764 0.244995H19.507Z" fill="#291af9"/>
<path d="M22.6212 26.3479C22.6195 26.3445 22.6177 26.3412 22.6159 26.3378C22.2725 25.6848 21.5566 25.3165 20.8261 25.4204L20.0347 25.5328C20.099 25.5356 20.1624 25.5715 20.195 25.6397C20.3565 25.9722 20.5246 26.3046 20.6995 26.6361C20.8897 26.9974 21.0742 27.3635 21.2539 27.7325L21.2542 27.7315V27.7324C24.2401 33.8682 25.8334 41.0606 25.8786 47.7137C25.8796 47.8722 26.0074 48 26.1659 48H27.8013C27.7273 40.9617 25.9381 32.6617 22.6212 26.3479Z" fill="#291af9"/>
<path d="M19.6703 18.561C19.3407 17.211 19.0765 15.7985 18.8689 14.29C18.7793 13.6365 18.7361 12.375 18.7155 11.4094C18.7008 10.7211 18.0897 10.1995 17.4076 10.2922L16.5756 10.4049C16.6756 10.4049 16.7695 10.485 16.7675 10.6013C16.755 11.3545 16.7618 12.0914 16.7935 12.787L16.7934 12.7873C16.8221 13.4256 16.8717 14.029 16.9473 14.5783C17.1549 16.0869 17.4191 17.4993 17.7487 18.8494C18.3127 21.1526 17.9447 23.6047 16.6619 25.5994C16.3035 26.1567 15.8683 26.6929 15.3398 27.1839C14.3712 28.0833 13.2019 28.5022 11.9287 28.7549C13.935 28.508 15.8212 28.2341 17.2615 26.8956C17.79 26.4046 18.2253 25.8685 18.5837 25.3112C19.8663 23.3163 20.2343 20.8642 19.6703 18.561Z" fill="#291af9"/>
</g>
<defs>
<clipPath id="clip0_5_281">
<rect width="48" height="48" fill="white"/>
</clipPath>
</defs>
</svg>
